<svg width="1024" height="1024" viewBox="0 0 1024 1024"
xmlns="http://www.w3.org/2000/svg">

<defs>
<linearGradient id="inner" x1="0" y1="0" x2="1" y2="1">
<stop offset="0%" stop-color="#1B2433"/>
<stop offset="100%" stop-color="#0B1220"/>
</linearGradient>
</defs>

<!-- 外层黑色厚边框 -->
<rect x="0" y="0" width="1024" height="1024" rx="200" ry="200" fill="#000000"/>

<!-- 白色中间层 -->
<rect x="100" y="100" width="824" height="824" rx="160" ry="160" fill="#FFFFFF"/>

<!-- 内部深色卡片 -->
<rect x="180" y="180" width="664" height="664" rx="130" ry="130" fill="url(#inner)"/>


<!-- 水平内容条：3 条同样粗细、同样长度的胶囊条（灰 / 蓝 / 灰） -->
<rect x="475" y="327" width="320" height="38" rx="19" ry="19" fill="#9AA4B5"/>
<rect x="475" y="531" width="320" height="38" rx="19" ry="19" fill="#2F76FF"/>
<rect x="475" y="701" width="320" height="38" rx="19" ry="19" fill="#9AA4B5"/>


<!-- 时间轴竖线 -->
<rect x="343" y="370" width="6" height="380" rx="3" ry="3" fill="#C9D2E0"/>


<!-- 顶部节点：已完成（蓝实心圆 + 白勾；尺寸 = 白色节点大小 r=50） -->
<circle cx="346" cy="346" r="62" fill="#9CC2FF"/>
<circle cx="346" cy="346" r="50" fill="#2F76FF"/>
<path d="M318 348 L339 370 L376 326"
fill="none" stroke="#FFFFFF" stroke-width="14"
stroke-linecap="round" stroke-linejoin="round"/>


<!-- 中间节点：未完成（白实心圆，r=50 比之前 40 稍大） -->
<circle cx="346" cy="550" r="50" fill="#FFFFFF"/>


<!-- 底部节点：未完成（白实心圆，r=50） -->
<circle cx="346" cy="720" r="50" fill="#FFFFFF"/>

</svg>
