<svg width="1024" height="1024" viewBox="0 0 1024 1024"
xmlns="http://www.w3.org/2000/svg">

<defs>
<linearGradient id="inner" x1="0" y1="0" x2="1" y2="1">
<stop offset="0%" stop-color="#1B2433"/>
<stop offset="100%" stop-color="#0B1220"/>
</linearGradient>
</defs>

<!-- 外层黑色厚边框 -->
<rect x="0" y="0" width="1024" height="1024" rx="200" ry="200" fill="#000000"/>

<!-- 白色中间层 -->
<rect x="100" y="100" width="824" height="824" rx="160" ry="160" fill="#FFFFFF"/>

<!-- 内部深色卡片 -->
<rect x="180" y="180" width="664" height="664" rx="130" ry="130" fill="url(#inner)"/>


<!-- 水平内容条：3 条同样粗细、同样长度（往左移 15px，整体上移 40px） -->
<rect x="460" y="287" width="320" height="38" rx="19" ry="19" fill="#9AA4B5"/>
<rect x="460" y="491" width="320" height="38" rx="19" ry="19" fill="#2F76FF"/>
<rect x="460" y="661" width="320" height="38" rx="19" ry="19" fill="#9AA4B5"/>


<!-- 时间轴竖线（上移 40px） -->
<rect x="343" y="330" width="6" height="380" rx="3" ry="3" fill="#C9D2E0"/>


<!-- 顶部节点（上移 40px：cy 346 → 306） -->
<circle cx="346" cy="306" r="62" fill="#9CC2FF"/>
<circle cx="346" cy="306" r="50" fill="#2F76FF"/>
<path d="M318 308 L339 330 L376 286"
fill="none" stroke="#FFFFFF" stroke-width="14"
stroke-linecap="round" stroke-linejoin="round"/>


<!-- 中间节点（上移 40px：cy 550 → 510） -->
<circle cx="346" cy="510" r="50" fill="#FFFFFF"/>


<!-- 底部节点（上移 40px：cy 720 → 680） -->
<circle cx="346" cy="680" r="50" fill="#FFFFFF"/>

</svg>
