<svg width="1024" height="1024" viewBox="0 0 1024 1024"
xmlns="http://www.w3.org/2000/svg">

<defs>
<linearGradient id="inner" x1="0" y1="0" x2="1" y2="1">
<stop offset="0%" stop-color="#1B2433"/>
<stop offset="100%" stop-color="#0B1220"/>
</linearGradient>
</defs>

<!-- 外层黑色厚边框 -->
<rect x="0" y="0" width="1024" height="1024" rx="200" ry="200" fill="#000000"/>

<!-- 白色中间层 -->
<rect x="100" y="100" width="824" height="824" rx="160" ry="160" fill="#FFFFFF"/>

<!-- 内部深色卡片（中心 512,512） -->
<rect x="180" y="180" width="664" height="664" rx="130" ry="130" fill="url(#inner)"/>


<!-- 水平内容条：3 条等粗等长，向左再移 35px（460→425），整体下移 25px 居中 -->
<rect x="425" y="312" width="320" height="38" rx="19" ry="19" fill="#9AA4B5"/>
<rect x="425" y="516" width="320" height="38" rx="19" ry="19" fill="#2F76FF"/>
<rect x="425" y="686" width="320" height="38" rx="19" ry="19" fill="#9AA4B5"/>


<!-- 时间轴竖线（下移 25px：y 330→355，高 380，底 735 在底圆 r=50 内） -->
<rect x="343" y="355" width="6" height="380" rx="3" ry="3" fill="#C9D2E0"/>


<!-- 顶部节点（下移 25px：cy 306→331） -->
<circle cx="346" cy="331" r="62" fill="#9CC2FF"/>
<circle cx="346" cy="331" r="50" fill="#2F76FF"/>
<path d="M318 333 L339 355 L376 311"
fill="none" stroke="#FFFFFF" stroke-width="14"
stroke-linecap="round" stroke-linejoin="round"/>


<!-- 中间节点（下移 25px：cy 510→535） -->
<circle cx="346" cy="535" r="50" fill="#FFFFFF"/>


<!-- 底部节点（下移 25px：cy 680→705） -->
<circle cx="346" cy="705" r="50" fill="#FFFFFF"/>

</svg>
